<svg id="Icons" xmlns="http://www.w3.org/2000/svg" viewBox="0 0 512 512"><defs><style>.cls-5{fill:#dd8c29}.cls-6{fill:#efb732}.cls-7{fill:#962a11}.cls-8{fill:#fff}.cls-10{fill:#f39e22}.cls-11{fill:#f9c744}.cls-12{fill:#c44a1a}.cls-17{fill:#eef9ff}.cls-18{fill:#7ed0fc}</style></defs><circle cx="256" cy="256" r="256" style="fill:#29a3fb"/><path d="M444.41 429.31a256 256 0 0 1-376.82 0z" style="fill:#0989d8"/><path d="M236.88 219.94v186.61a22.76 22.76 0 0 1-22.74 22.76H137a22.76 22.76 0 0 1-22.76-22.76V219.94a31.23 31.23 0 0 1 23.47-30.25 15.9 15.9 0 0 0 11.95-14.56l4.49-82.49h-.64a6.9 6.9 0 0 1-6.71-8.47l4.64-20a6.9 6.9 0 0 1 6.71-5.35H193a6.93 6.93 0 0 1 6.73 5.35l4.64 20a6.91 6.91 0 0 1-6.73 8.47H197l4.49 82.49a15.88 15.88 0 0 0 12 14.56 31.21 31.21 0 0 1 23.39 30.25z" style="fill:#6b250c"/><path d="M236.88 219.94v186.61a22.76 22.76 0 0 1-22.74 22.76h-55.69a22.76 22.76 0 0 1-22.75-22.76V227a23.44 23.44 0 0 1 23.47-23.48 15.94 15.94 0 0 0 12-14.57l4.43-102.19a.28.28 0 0 0-.28-.25 7.17 7.17 0 0 1-7-8.8l4.37-18.81H193a6.93 6.93 0 0 1 6.73 5.35l4.64 20a6.91 6.91 0 0 1-6.73 8.47H197l4.49 82.49a15.88 15.88 0 0 0 12 14.56 31.21 31.21 0 0 1 23.39 30.17z" style="fill:#7a2b13"/><path class="cls-5" d="M206.91 54.58v3.87a5.74 5.74 0 0 1-5.74 5.76H150a5.76 5.76 0 0 1-5.76-5.76v-3.87a5.76 5.76 0 0 1 5.76-5.76h51.2a5.74 5.74 0 0 1 5.71 5.76z"/><path class="cls-6" d="M206.91 54.58v3.87a5.74 5.74 0 0 1-5.74 5.76h-38.74a5.74 5.74 0 0 1-5.74-5.76v-3.87a5.74 5.74 0 0 1 5.74-5.76h38.74a5.74 5.74 0 0 1 5.74 5.76z"/><ellipse class="cls-7" cx="204.45" cy="204.84" rx="11.43" ry="19.14" transform="rotate(-45 204.458 204.84)"/><ellipse class="cls-7" cx="223.34" cy="236.64" rx="8.13" ry="13.16" transform="rotate(-11.78 223.253 236.546)"/><path class="cls-7" d="M135.7 392.36h46.07a7.1 7.1 0 0 1 7.1 7.1 7.1 7.1 0 0 1-7.1 7.1H135.7v-14.2z"/><rect class="cls-7" x="198.6" y="392.36" width="26.35" height="14.19" rx="7.1"/><path class="cls-7" d="M192 104.44a5.94 5.94 0 0 1 5.93 5.62l2.31 42.43a6 6 0 0 1-5.93 6.26H192a5.94 5.94 0 0 1-5.94-5.94v-42.43a5.94 5.94 0 0 1 5.94-5.94z"/><path class="cls-6" d="M236.88 266.23v99.57H114.24v-99.57l21.47-12.08 39.85-22.43 61.32 34.51z"/><path class="cls-5" d="M135.71 254.15V365.8h-21.47v-99.57l21.47-12.08z"/><path class="cls-8" d="M236.88 289.2H212.5c-5.92-15.86-20.22-27.05-36.94-27.05s-31 11.19-36.94 27.05h-24.38v32.52h24.38c5.92 15.87 20.22 27.06 36.94 27.06s31-11.19 36.94-27.06h24.38z"/><path style="fill:#ebd9ea" d="M114.24 289.2h21.46v32.52h-21.46z"/><ellipse class="cls-10" cx="175.56" cy="305.46" rx="28.89" ry="31.4"/><ellipse class="cls-11" cx="175.56" cy="305.46" rx="21.57" ry="23.44"/><rect class="cls-12" x="163.44" y="291.94" width="23.97" height="6.35" rx="3.18"/><rect class="cls-12" x="155.57" y="303.4" width="39.7" height="6.35" rx="3.18"/><path class="cls-11" d="m302.52 209.59-24.93-43.17-39.47 22.78 24.93 43.18a2.75 2.75 0 0 0 5.13-1.29l.16-4.91.51-16.1a7.79 7.79 0 0 1 11.46-6.61l14.19 7.6 4.34 2.32a2.75 2.75 0 0 0 3.68-3.8z"/><path class="cls-8" d="m247.5 191.72 19.14 33.16a2.69 2.69 0 0 0 1.7 1.3l.51-16.1a7.79 7.79 0 0 1 11.46-6.61l14.19 7.6a2.65 2.65 0 0 0-.27-2.12l-19.15-33.16z"/><path class="cls-11" d="m187.6 166.59-24.93 43.18a2.75 2.75 0 0 0 3.68 3.8l4.34-2.32 14.19-7.6a7.78 7.78 0 0 1 11.46 6.61l.52 16.09.15 4.92a2.75 2.75 0 0 0 5.13 1.29l24.93-43.18z"/><path class="cls-8" d="M190.11 176 171 209.13a2.66 2.66 0 0 0-.28 2.12l14.19-7.6a7.78 7.78 0 0 1 11.46 6.61l.52 16.09a2.66 2.66 0 0 0 1.69-1.29l19.12-33.16z"/><path d="M288.59 166.59a9.15 9.15 0 0 1-9.48 9.31h-.26a9.22 9.22 0 0 0-8.67 12.3 9.52 9.52 0 0 1 .57 3.19 9.24 9.24 0 0 1-14.87 7.19 9.1 9.1 0 0 0-5.59-1.92 9.2 9.2 0 0 0-8.85 6.62 9.22 9.22 0 0 1-17.68 0 9.2 9.2 0 0 0-8.85-6.62 9.08 9.08 0 0 0-5.59 1.92 9 9 0 0 1-5.59 2A9.24 9.24 0 0 1 195 188.2a9.22 9.22 0 0 0-8.93-12.3h-.29a9.21 9.21 0 0 1-5.18-16.8 9.2 9.2 0 0 0 0-15.19 8.94 8.94 0 0 1-4-7.49 9.17 9.17 0 0 1 9.48-9.32h.26a9.21 9.21 0 0 0 8.66-12.29 9.18 9.18 0 0 1 14.3-10.39 9.08 9.08 0 0 0 5.59 1.92 9.2 9.2 0 0 0 8.85-6.62 9.22 9.22 0 0 1 17.68 0 9.2 9.2 0 0 0 14.44 4.7 9.07 9.07 0 0 1 5.58-2 9.24 9.24 0 0 1 8.72 12.34 9.19 9.19 0 0 0 8.93 12.29h.28a9.21 9.21 0 0 1 5.18 16.81 9.21 9.21 0 0 0 0 15.19 8.91 8.91 0 0 1 4.04 7.54z" style="fill:#fa4654"/><path d="M272.42 151.51a39.83 39.83 0 1 1-39.83-39.83 39.83 39.83 0 0 1 39.83 39.83z" style="fill:#f4e6f4"/><path class="cls-10" d="M266.54 151.51a33.94 33.94 0 1 1-34-33.95 33.93 33.93 0 0 1 34 33.95z"/><ellipse class="cls-11" cx="247.5" cy="137.11" rx="9.61" ry="14.17" transform="rotate(-36.74 247.487 137.117)"/><ellipse class="cls-11" cx="252.14" cy="162.44" rx="9.85" ry="5.2" transform="rotate(-78.3 252.143 162.436)"/><path d="m430.51 233.41-13 182.71a14.21 14.21 0 0 1-14.17 13.19H308.8a14.21 14.21 0 0 1-14.17-13.24l-12.38-182.68a5.82 5.82 0 0 1 5.8-6.2h136.67a5.81 5.81 0 0 1 5.79 6.22z" style="fill:#aacfe5"/><path d="m430.51 233.41-13 182.71a14.21 14.21 0 0 1-14.17 13.19h-76.9a14.19 14.19 0 0 1-14.17-13.24l-12.41-182.68a5.81 5.81 0 0 1 5.8-6.2h119.06a5.81 5.81 0 0 1 5.79 6.22z" style="fill:#cde6f6"/><path class="cls-17" d="M418.48 273.17a8.56 8.56 0 0 1 8.54 9.17l-3.7 52a8.57 8.57 0 0 1-8.55 8 8.57 8.57 0 0 1-8.54-9.18l3.71-51.95a8.56 8.56 0 0 1 8.54-8.04zM412.7 354.21a8.57 8.57 0 0 1 8.54 9.17l-.83 11.62a8.57 8.57 0 0 1-8.54 8 8.56 8.56 0 0 1-8.54-9.18l.83-11.62a8.56 8.56 0 0 1 8.54-7.99z"/><path class="cls-10" d="m410.9 267.69-9.59 134.36a10.44 10.44 0 0 1-10.42 9.7h-69.5A10.45 10.45 0 0 1 311 402l-9.1-134.34z"/><ellipse class="cls-11" cx="391.17" cy="306.95" rx="21.33" ry="12.09" transform="rotate(-86.52 391.165 306.948)"/><ellipse class="cls-11" cx="388.8" cy="345.94" rx="13.31" ry="7.54" transform="rotate(-86.52 388.799 345.937)"/><path class="cls-8" d="M410.9 267.67h-109a15 15 0 0 1 15-15 14.83 14.83 0 0 1 5.22.95 15 15 0 0 1 29.85-.32 23.28 23.28 0 0 1 26-1.72 11.6 11.6 0 1 1 22.62 4.54 11.61 11.61 0 0 1 10.31 11.55z"/><circle class="cls-8" cx="341.8" cy="267.69" r="6.46"/><circle class="cls-8" cx="368.19" cy="288.8" r="6.46"/><circle class="cls-8" cx="350.95" cy="307.91" r="7.68"/><circle class="cls-8" cx="364.49" cy="338.19" r="9.94"/><circle class="cls-8" cx="320.06" cy="287.81" r="9.94"/><circle class="cls-8" cx="384.37" cy="271.16" r="9.94"/><circle class="cls-8" cx="371.65" cy="371.81" r="6.46"/><circle class="cls-8" cx="324.58" cy="328.25" r="6.46"/><circle class="cls-8" cx="339.94" cy="388.24" r="8.33"/><path class="cls-8" d="M365 78.48h-10.57a13.31 13.31 0 0 1-13.31-13.31V54.6a5.78 5.78 0 0 0-5.78-5.78 5.78 5.78 0 0 0-5.78 5.78v10.57a13.31 13.31 0 0 1-13.32 13.31h-10.57a5.78 5.78 0 0 0-5.78 5.78 5.78 5.78 0 0 0 5.78 5.74h10.57a13.32 13.32 0 0 1 13.32 13.32v10.56a5.78 5.78 0 0 0 5.78 5.79 5.78 5.78 0 0 0 5.78-5.79v-10.52A13.31 13.31 0 0 1 354.43 90H365a5.78 5.78 0 0 0 5.78-5.78 5.78 5.78 0 0 0-5.78-5.74z"/><path class="cls-18" d="M90.13 250.22H79.56a13.31 13.31 0 0 1-13.31-13.31v-10.57a5.78 5.78 0 0 0-5.78-5.78 5.78 5.78 0 0 0-5.78 5.78v10.57a13.31 13.31 0 0 1-13.31 13.31H30.81A5.78 5.78 0 0 0 25 256a5.78 5.78 0 0 0 5.79 5.78h10.59a13.31 13.31 0 0 1 13.31 13.31v10.57a5.78 5.78 0 0 0 5.78 5.78 5.78 5.78 0 0 0 5.78-5.78v-10.57a13.31 13.31 0 0 1 13.31-13.31h10.57a5.78 5.78 0 0 0 5.78-5.78 5.78 5.78 0 0 0-5.78-5.78zM453.33 174.3h-8.13a10.23 10.23 0 0 1-10.2-10.23v-8.13a4.44 4.44 0 0 0-4.44-4.44 4.44 4.44 0 0 0-4.45 4.44v8.13a10.23 10.23 0 0 1-10.23 10.23h-8.13a4.44 4.44 0 0 0-4.44 4.45 4.44 4.44 0 0 0 4.44 4.44h8.13a10.23 10.23 0 0 1 10.23 10.23v8.13a4.44 4.44 0 0 0 4.45 4.44 4.44 4.44 0 0 0 4.44-4.44v-8.13a10.23 10.23 0 0 1 10.23-10.23h8.13a4.44 4.44 0 0 0 4.44-4.44 4.44 4.44 0 0 0-4.47-4.45z"/></svg>