<svg id="Icons" xmlns="http://www.w3.org/2000/svg" viewBox="0 0 512 512"><defs><style>.cls-3{fill:#6b250c}.cls-4{fill:#7a2b13}.cls-5{fill:#962a11}.cls-6{fill:#efb732}.cls-7{fill:#dd8c29}.cls-8{fill:#fff}.cls-9{fill:#ebd9ea}.cls-10{fill:#f39e22}.cls-11{fill:#f9c744}.cls-12{fill:#c44a1a}.cls-13{fill:#fa80a4}</style></defs><circle cx="256" cy="256" r="255.98" style="fill:#fa4654"/><path d="M11.24 331a255.6 255.6 0 0 0 158.91 166.16c133.19 47.41 279.6-22.12 327-155.31a254.7 254.7 0 0 0 8-144.69 76.79 76.79 0 0 1-15.63-2.42c-27.1-7.13-52.4-27.8-79.84-22.08-18.82 3.92-33 19.74-42.27 36.57s-15.14 35.48-25.35 51.77a112.53 112.53 0 0 1-153.75 36.47C170.12 286.44 152 269.44 131 273.19c-28.5 5.11-39.74 45.21-68.09 51.07-9.15 1.88-18.6-.24-27.92.12A54.35 54.35 0 0 0 11.24 331z" style="fill:#e52e44"/><path class="cls-3" d="M247.75 263 203.1 429.61a21 21 0 0 1-25.75 14.88L108.47 426a21 21 0 0 1-14.87-25.73l44.64-166.63a28.86 28.86 0 0 1 28.19-21.39 14.69 14.69 0 0 0 14.16-10.14l23.74-72.58-.57-.15a6.37 6.37 0 0 1-4-9.17l8.92-16.71a6.36 6.36 0 0 1 7.27-3.17l31.09 8.33a6.38 6.38 0 0 1 4.76 6.34l-.63 19a6.39 6.39 0 0 1-8 6l-.57-.15-15.76 74.65a14.69 14.69 0 0 0 7.16 15.87A28.85 28.85 0 0 1 247.75 263z"/><path class="cls-4" d="M247.75 263 203.1 429.61a21 21 0 0 1-25.75 14.88l-49.73-13.33a21 21 0 0 1-14.86-25.76l43-160.33a21.67 21.67 0 0 1 26.57-15.36 14.72 14.72 0 0 0 14.16-10.14l28.44-90.16a.26.26 0 0 0-.19-.3 6.62 6.62 0 0 1-4.13-9.53l8.4-15.74 18.1 4.85a6.38 6.38 0 0 1 4.69 6.31l-.63 19a6.39 6.39 0 0 1-8 6l-.57-.15-15.76 74.65a14.69 14.69 0 0 0 7.16 15.87A28.85 28.85 0 0 1 247.75 263z"/><ellipse class="cls-5" cx="222.41" cy="241.74" rx="10.57" ry="17.69" transform="rotate(-30 222.403 241.753)"/><ellipse class="cls-5" cx="231.66" cy="274.66" rx="12.17" ry="7.51" transform="rotate(-86.78 231.635 274.658)"/><path class="cls-5" d="M113.62 398.87h42.59a6.56 6.56 0 0 1 6.56 6.56 6.56 6.56 0 0 1-6.56 6.56h-42.59v-13.12z" transform="rotate(15 138.183 405.424)"/><rect class="cls-5" x="170.21" y="410.71" width="24.35" height="13.12" rx="6.56" transform="rotate(15 182.397 417.26)"/><path class="cls-5" d="M235.3 149.12a5.49 5.49 0 0 1 3.95 6.43L231.16 194a5.49 5.49 0 0 1-6.8 4.17l-2.06-.55a5.48 5.48 0 0 1-3.88-6.72l10.15-37.9a5.49 5.49 0 0 1 6.73-3.88z"/><path class="cls-6" d="m236.67 304.32-23.82 88.9-109.5-29.34 23.82-88.9 22.05-5.65 40.96-10.49 46.49 45.48z"/><path class="cls-7" d="m149.22 269.33-26.71 99.69-19.16-5.14 23.82-88.9 22.05-5.65z"/><path class="cls-8" d="M231.17 324.83 209.41 319c-1.49-15.57-11.59-29-26.51-33s-30.38 2.57-39.46 15.32l-21.77-5.83-7.78 29 21.77 5.83c1.49 15.58 11.58 29 26.51 33s30.38-2.57 39.46-15.32l21.76 5.84z"/><path class="cls-9" transform="rotate(15 127.35 312.576)" d="M117.44 297.54h19.84v30.06h-19.84z"/><ellipse class="cls-10" cx="172.53" cy="324.68" rx="29.03" ry="26.71" transform="rotate(-75 172.532 324.68)"/><ellipse class="cls-11" cx="172.53" cy="324.68" rx="21.67" ry="19.94" transform="rotate(-75 172.532 324.68)"/><rect class="cls-12" x="163.81" y="312.47" width="22.15" height="5.87" rx="2.94" transform="rotate(15 174.898 315.396)"/><rect class="cls-12" x="153.8" y="322.7" width="36.7" height="5.87" rx="2.94" transform="rotate(15 172.152 325.649)"/><path class="cls-3" d="m373.76 233.65 44.64 166.62A21 21 0 0 1 403.54 426l-68.87 18.46a21 21 0 0 1-25.77-14.88L264.25 263A28.87 28.87 0 0 1 278 230.37a14.7 14.7 0 0 0 7.19-15.86l-15.73-74.73-.57.15a6.38 6.38 0 0 1-8-6l-.68-18.93a6.38 6.38 0 0 1 4.71-6.38l31.08-8.29a6.39 6.39 0 0 1 7.29 3.16l8.92 16.72a6.39 6.39 0 0 1-4 9.17l-.57.15 23.74 72.58a14.71 14.71 0 0 0 14.16 10.15 28.85 28.85 0 0 1 28.22 21.39z"/><path class="cls-4" d="m373.76 233.65 44.64 166.62A21 21 0 0 1 403.54 426l-49.73 13.33a21 21 0 0 1-25.74-14.88l-43-160.34a21.67 21.67 0 0 1 15.34-26.58 14.74 14.74 0 0 0 7.19-15.86l-20.46-92.3a.25.25 0 0 0-.31-.16 6.63 6.63 0 0 1-8.35-6.19l-.6-17.83 18.1-4.85a6.39 6.39 0 0 1 7.29 3.16l8.92 16.72a6.39 6.39 0 0 1-4 9.17l-.57.15 23.74 72.58a14.71 14.71 0 0 0 14.16 10.15 28.85 28.85 0 0 1 28.24 21.38z"/><ellipse class="cls-5" cx="341.19" cy="227.92" rx="10.57" ry="17.69" transform="rotate(-60 341.19 227.92)"/><ellipse class="cls-5" cx="365.66" cy="251.8" rx="7.51" ry="12.17" transform="rotate(-26.78 365.596 251.778)"/><path class="cls-5" d="M325.53 405.22h42.59a6.56 6.56 0 0 1 6.56 6.56 6.56 6.56 0 0 1-6.56 6.56h-42.59v-13.12z" transform="rotate(-15 350.085 411.79)"/><rect class="cls-5" x="382.11" y="393.38" width="24.35" height="13.12" rx="6.56" transform="rotate(-15 394.298 399.953)"/><path class="cls-5" d="M306 141.26a5.48 5.48 0 0 1 6.64 3.6l12.21 37.33a5.48 5.48 0 0 1-3.8 7l-2.06.55a5.48 5.48 0 0 1-6.72-3.88L302.16 148a5.48 5.48 0 0 1 3.84-6.74z"/><path class="cls-6" d="m384.83 274.98 23.82 88.9-109.5 29.35-23.82-88.91 16.28-15.92 30.21-29.56 63.01 16.14z"/><path class="cls-7" d="m291.61 288.4 26.71 99.69-19.17 5.14-23.82-88.91 16.28-15.92z"/><path class="cls-8" d="m390.33 295.49-21.77 5.83C359.48 288.57 344 282 329.1 286s-25 17.42-26.51 33l-21.76 5.83 7.78 29 21.76-5.83c9.08 12.74 24.53 19.31 39.46 15.31s25-17.41 26.51-33l21.77-5.83z"/><path class="cls-9" transform="rotate(-15 294.314 336.793)" d="M284.38 321.75h19.84v30.06h-19.84z"/><ellipse class="cls-10" cx="339.47" cy="324.68" rx="26.71" ry="29.03" transform="rotate(-15 337.893 323.23)"/><ellipse class="cls-11" cx="339.47" cy="324.68" rx="19.94" ry="21.67" transform="rotate(-15 337.893 323.23)"/><rect class="cls-12" x="325.79" y="312.54" width="22.15" height="5.87" rx="2.94" transform="rotate(-15 336.88 315.467)"/><rect class="cls-12" x="321.26" y="322.77" width="36.7" height="5.87" rx="2.94" transform="rotate(-15 339.625 325.72)"/><rect class="cls-13" x="250.98" y="20.88" width="10.05" height="64.26" rx="5.02"/><rect class="cls-13" x="219.37" y="35.88" width="10.05" height="51.97" rx="5.02" transform="rotate(-15 224.41 61.883)"/><rect class="cls-13" x="190.98" y="58.59" width="10.05" height="38.45" rx="5.02" transform="rotate(-30 196.008 77.82)"/><rect class="cls-13" x="282.58" y="35.88" width="10.05" height="51.97" rx="5.02" transform="rotate(-165 287.606 61.865)"/><rect class="cls-13" x="310.97" y="58.59" width="10.05" height="38.45" rx="5.02" transform="rotate(-150 315.991 77.815)"/></svg>